<svg width="401" height="146" viewBox="0 0 401 146" fill="none" xmlns="http://www.w3.org/2000/svg">
<path d="M181.59 40.8384H140.341V56.2707C144.055 52.195 147.496 49.575 150.664 48.4105C152.586 47.74 154.611 47.4119 156.646 47.441C164.961 47.441 171.179 51.5167 175.301 59.6681C177.028 62.9328 177.956 66.5604 178.009 70.2533C178.009 76.5881 175.403 82.3115 170.192 87.4236C168.963 88.6597 167.666 89.826 166.306 90.917L157.922 85.9039C160.035 83.6914 162.44 80.9665 165.136 77.7292C168.169 74.0902 169.7 69.4905 169.729 63.9301C169.868 61.0032 169.083 58.1069 167.485 55.6506C166.709 54.4182 165.617 53.417 164.321 52.7517C163.026 52.0864 161.576 51.7815 160.122 51.869C157.211 51.9389 154.076 53.0451 150.716 55.1878C147.813 57.0259 145.275 59.386 143.232 62.1485C141.083 65.0131 140.009 67.7758 140.009 70.4367V90.7249L130.48 85.5895V40.8384H76.332V34.7249H130.48C130.48 24.7162 127.86 16.1747 122.62 9.10044C119.511 4.83843 116.626 1.83988 113.965 0.104803L124.297 0C130.021 3.12664 134.568 9.88064 137.939 20.262C139.498 24.92 140.308 29.7956 140.341 34.7074H181.59V40.8384Z" fill="#160C28"/>
<path d="M244.462 34.7075L244.357 40.8211H239.117V50.6551C238.506 51.8778 237.074 54.4659 234.82 58.4193L216.681 90.3145C213.641 90.3145 209.67 87.9128 204.768 83.1093C199.388 77.8691 196.695 72.0467 196.689 65.642C196.706 62.3273 197.821 59.1115 199.86 56.4979C200.598 55.6769 201.094 54.6671 201.292 53.5809C201.292 52.3931 200.288 51.8342 198.279 51.8342C196.645 51.8835 195.088 52.5406 193.912 53.677C192.744 54.8306 191.637 56.0432 190.593 57.3102L183.999 51.3276C185.871 49.6308 188.138 48.4297 190.593 47.8342C191.939 47.5699 193.309 47.4498 194.681 47.4761C203.909 47.3713 208.526 52.2941 208.532 62.2446C208.532 63.5838 208.387 65.578 208.095 68.2272C207.807 70.8473 207.667 72.8822 207.667 74.2097C207.667 79.5896 208.628 82.5183 210.55 82.9957C211.603 82.9957 212.852 81.709 214.296 79.1355L229.851 51.0045V40.8385H180.209V34.725L244.462 34.7075Z" fill="#160C28"/>
<path d="M296.069 40.8381H262.008V49.0652C262.167 49.0779 262.315 49.1533 262.419 49.2748C262.508 49.3848 262.636 49.4566 262.777 49.4757C262.621 49.4948 262.462 49.4768 262.314 49.4233C262.314 49.2574 264.847 48.7071 269.93 47.7901C271.768 47.451 273.633 47.2786 275.502 47.2748C283.17 47.2748 288.093 49.4233 290.27 53.7202C291.738 56.5849 292.471 62.3607 292.471 71.0477V90.7246C291.755 90.4509 289.045 89.3418 284.34 87.3971C284.34 86.3141 284.122 85.6504 283.676 85.3098C281.869 86.3665 280.393 87.1613 279.231 87.7115C275.203 89.5287 270.82 90.4238 266.401 90.3316C259.682 90.3316 254.503 88.2181 250.864 83.991C249.171 82.113 248.237 79.6723 248.244 77.1438C248.244 74.3141 249.639 71.5048 252.428 68.7159C257.854 63.2952 264.585 60.5849 272.62 60.5849C277.493 60.5849 281.411 61.7086 284.375 63.9561V59.2399C283.238 57.6389 281.743 56.326 280.008 55.4058C278.163 54.6908 276.183 54.3926 274.209 54.5325C269.035 54.5716 263.916 55.5972 259.126 57.5543C257.083 58.3986 255.088 59.1642 253.144 59.8512V56.0609C253.589 55.6853 254.235 55.1176 255.091 54.3665L255.345 54.0609V40.8381H242.393V34.7246H296.069V40.8381ZM284.366 73.2399C284.366 71.7494 282.579 70.4044 279.004 69.205C276.624 68.3293 274.123 67.8284 271.589 67.7202C264.398 67.7202 258.64 70.3112 254.314 75.4932C252.567 77.5718 251.694 79.2748 251.694 80.6023C252.398 83.0885 255.208 84.3316 260.122 84.3316C266.244 84.3923 272.262 82.7472 277.502 79.5805C282.09 76.8207 284.381 74.7071 284.375 73.2399H284.366Z" fill="#160C28"/>
<path d="M345.852 40.8381H311.791V49.0652C311.87 49.0706 311.947 49.0919 312.017 49.1279C312.088 49.1639 312.15 49.2139 312.201 49.2748C312.291 49.3848 312.419 49.4566 312.559 49.4757C312.403 49.4938 312.245 49.4759 312.096 49.4233C312.096 49.2574 314.638 48.7071 319.712 47.7901C321.55 47.4514 323.415 47.2789 325.284 47.2748C332.952 47.2748 337.875 49.4233 340.053 53.7202C341.52 56.5849 342.253 62.3607 342.253 71.0477V90.7246C341.537 90.4509 338.827 89.3418 334.122 87.3971C334.122 86.3141 333.905 85.6504 333.46 85.3098C331.661 86.3665 330.175 87.1613 329.013 87.7115C324.985 89.5287 320.602 90.4238 316.184 90.3316C309.476 90.3316 304.297 88.2181 300.646 83.991C298.953 82.113 298.019 79.6723 298.026 77.1438C298.026 74.3141 299.424 71.5048 302.219 68.7159C307.633 63.2952 314.361 60.5849 322.402 60.5849C327.275 60.5849 331.195 61.7086 334.158 63.9561V59.2399C333.024 57.637 331.527 56.3235 329.791 55.4058C327.946 54.69 325.965 54.3917 323.991 54.5325C318.818 54.5727 313.699 55.5982 308.909 57.5543C306.865 58.3986 304.874 59.1642 302.935 59.8512V56.0609C303.371 55.6853 304.026 55.1176 304.874 54.3665L305.128 54.0609V40.8381H294.646V34.7246H345.852V40.8381ZM334.141 73.2399C334.141 71.7464 332.394 70.4015 328.779 69.205C326.399 68.3278 323.896 67.8268 321.363 67.7202C314.172 67.7202 308.415 70.3112 304.089 75.4932C302.342 77.5718 301.467 79.2748 301.467 80.6023C302.184 83.0885 304.993 84.3316 309.895 84.3316C316.017 84.3923 322.036 82.7472 327.275 79.5805C331.834 76.8207 334.111 74.7071 334.105 73.2399H334.141Z" fill="#160C28"/>
<path d="M400.001 40.8381H345.049V34.7246H400.001V40.8381ZM389.005 63.3272C389.005 55.1758 385.136 51.0856 377.398 51.0565C371.675 51.0565 366.889 54.055 363.04 60.0521C359.719 65.0895 357.943 70.9879 357.931 77.0215V91.8687L349.547 87.5019V49.074H358.341V55.1875L362.883 51.7639C366.494 48.8509 370.977 47.2306 375.617 47.1613C378.5 47.1105 381.357 47.7191 383.969 48.9406C386.582 50.162 388.881 51.9641 390.691 54.2093C394.44 58.645 396.441 64.2977 396.315 70.1045C396.315 77.8425 393.043 85.2719 386.499 92.3927L376.638 86.2093C379.701 83.1817 382.306 80.3869 384.455 77.825C387.488 74.2326 389.005 69.4 389.005 63.3272Z" fill="#160C28"/>
<path d="M101.065 37.5983V145.703H97.083L88.6288 132.751V89.9563C86.3655 90.7416 84.0478 91.3604 81.6943 91.8079C79.4706 92.2204 77.2136 92.428 74.9519 92.428C73.65 92.4258 72.3494 92.3471 71.0568 92.1921C69.6171 92.0138 68.1906 91.7425 66.786 91.3799C66.9083 92.3319 67.0218 93.3974 67.1179 94.5677C67.214 95.738 67.2576 96.8646 67.2576 97.9389C67.3085 101.636 66.6626 105.31 65.3537 108.768C64.173 111.872 62.3244 114.677 59.9388 116.987C57.5261 119.273 54.6611 121.028 51.5284 122.14C48.0242 123.38 44.3284 123.992 40.6113 123.947C35.5153 124.043 30.4738 122.886 25.9301 120.576C21.5945 118.299 17.7417 115.203 14.5852 111.458C11.1552 107.371 8.30453 102.83 6.11354 97.9651C3.66639 92.5933 1.62289 87.0466 0 81.3712L4.55895 80.0437C6.08736 84.4655 8.04426 88.7274 10.4017 92.7686C12.4575 96.3211 14.9807 99.5817 17.9039 102.463C20.5099 105.013 23.5313 107.101 26.8384 108.637C30.0434 110.096 33.5269 110.841 37.048 110.821C39.547 110.837 42.0325 110.454 44.4105 109.685C46.642 108.977 48.7172 107.847 50.524 106.358C52.2801 104.877 53.6902 103.028 54.655 100.943C55.7051 98.6149 56.2242 96.0821 56.1747 93.5284C56.2528 90.1789 55.2717 86.8902 53.3712 84.131C51.4789 81.4818 48.5357 79.3479 44.5415 77.7293C42.9658 77.0507 41.3278 76.5271 39.6506 76.166C38.232 75.8398 36.783 75.6642 35.3275 75.6419C33.9435 75.6723 32.5633 75.7978 31.1965 76.0175C29.4498 76.2737 27.4702 76.655 25.2576 77.1616L15.1965 65.3363L15.2926 64.5764C20.4991 64.2109 25.6648 63.4016 30.7336 62.1572C34.8112 61.1754 38.7511 59.691 42.4629 57.738C45.3311 56.2542 47.8801 54.2216 49.9651 51.7555C51.6406 49.7569 52.5671 47.2368 52.5851 44.6288C52.5881 42.9407 52.1804 41.2772 51.3974 39.7817C50.605 38.2612 49.522 36.9111 48.2096 35.8079C46.7551 34.619 45.0984 33.7019 43.3188 33.1005C41.3314 32.4226 39.2437 32.086 37.1441 32.1048C33.0987 32.2395 29.1045 33.0513 25.3275 34.5066C20.1662 36.4297 15.2547 38.9661 10.6987 42.0612L2.37555 29.3363C6.69742 27.2585 11.2182 25.6228 15.869 24.4542C19.9101 23.4772 24.0521 22.9789 28.2096 22.9695C32.7188 22.9168 37.2035 23.6406 41.4672 25.1092C45.2595 26.4072 48.7841 28.384 51.869 30.9433C54.7242 33.3429 57.0398 36.3192 58.6637 39.6769C60.2782 43.0575 61.1054 46.7602 61.083 50.5066C61.2032 55.0863 59.6718 59.5565 56.7685 63.1005C53.9214 66.559 49.3945 69.4876 43.1878 71.8865C47.9423 74.1177 52.8624 75.9777 57.9039 77.4498C61.8813 78.5851 65.9949 79.1727 70.131 79.1965C72.8226 79.2411 75.5079 78.9209 78.1135 78.2446C80.1487 77.7101 82.0836 76.8489 83.8428 75.6943C85.3194 74.73 86.5417 73.4238 87.4061 71.8865C88.202 70.47 88.6229 68.8737 88.6288 67.2489V37.5983" fill="#160C28"/>
<path d="M120.908 37.5979V145.703H117.389L108.463 132.498V37.5979" fill="#160C28"/>
<path d="M164.18 21.1801C163.78 21.1001 163.467 20.9334 163.24 20.6801C163.013 20.4134 162.9 20.0934 162.9 19.7201C162.9 19.4668 162.96 19.2001 163.08 18.9201L167.86 7.42007C168.02 7.02007 168.327 6.82007 168.78 6.82007C169.207 6.82007 169.507 7.02007 169.68 7.42007L174.46 18.9201C174.58 19.2001 174.64 19.4668 174.64 19.7201C174.64 20.0801 174.527 20.3934 174.3 20.6601C174.073 20.9268 173.76 21.1001 173.36 21.1801L171.64 17.0001H165.9L164.18 21.1801ZM171.06 15.3801L168.48 8.84007L168.32 8.90007L168.68 9.82007L166.48 15.3801H171.06ZM176.935 12.3001C176.935 11.3134 177.495 10.8201 178.615 10.8201V12.1001C178.495 12.2201 178.355 12.4001 178.195 12.6401L178.275 12.7201C178.675 12.1601 179.195 11.7068 179.835 11.3601C180.475 11.0001 181.168 10.8201 181.915 10.8201C182.995 10.8201 183.848 11.1401 184.475 11.7801C185.102 12.4201 185.415 13.2468 185.415 14.2601V19.9001C185.415 20.3401 185.268 20.6668 184.975 20.8801C184.695 21.0801 184.262 21.1801 183.675 21.1801V14.4401C183.675 13.8001 183.495 13.2934 183.135 12.9201C182.775 12.5468 182.228 12.3601 181.495 12.3601C181.002 12.3601 180.535 12.4668 180.095 12.6801C179.668 12.8801 179.322 13.1601 179.055 13.5201C178.802 13.8668 178.675 14.2468 178.675 14.6601V19.9001C178.675 20.3401 178.528 20.6668 178.235 20.8801C177.955 21.0801 177.522 21.1801 176.935 21.1801V12.3001ZM188.009 12.3001C188.009 11.3134 188.569 10.8201 189.689 10.8201V12.1001C189.569 12.2201 189.429 12.4001 189.269 12.6401L189.349 12.7201C189.749 12.1601 190.269 11.7068 190.909 11.3601C191.549 11.0001 192.243 10.8201 192.989 10.8201C194.069 10.8201 194.923 11.1401 195.549 11.7801C196.176 12.4201 196.489 13.2468 196.489 14.2601V19.9001C196.489 20.3401 196.343 20.6668 196.049 20.8801C195.769 21.0801 195.336 21.1801 194.749 21.1801V14.4401C194.749 13.8001 194.569 13.2934 194.209 12.9201C193.849 12.5468 193.303 12.3601 192.569 12.3601C192.076 12.3601 191.609 12.4668 191.169 12.6801C190.743 12.8801 190.396 13.1601 190.129 13.5201C189.876 13.8668 189.749 14.2468 189.749 14.6601V19.9001C189.749 20.3401 189.603 20.6668 189.309 20.8801C189.029 21.0801 188.596 21.1801 188.009 21.1801V12.3001ZM207.364 19.7001C207.364 20.6868 206.804 21.1801 205.684 21.1801V19.9001C205.804 19.7801 205.944 19.6001 206.104 19.3601L206.024 19.2801C205.624 19.8534 205.117 20.3134 204.504 20.6601C203.904 21.0068 203.244 21.1801 202.524 21.1801C201.804 21.1801 201.164 21.0268 200.604 20.7201C200.057 20.4134 199.63 19.9868 199.324 19.4401C199.03 18.8934 198.884 18.2801 198.884 17.6001V12.1001C198.884 11.6601 199.03 11.3401 199.324 11.1401C199.617 10.9268 200.057 10.8201 200.644 10.8201V17.5201C200.644 18.1601 200.83 18.6734 201.204 19.0601C201.59 19.4468 202.157 19.6401 202.904 19.6401C203.397 19.6401 203.85 19.5401 204.264 19.3401C204.677 19.1268 205.004 18.8468 205.244 18.5001C205.497 18.1401 205.624 17.7534 205.624 17.3401V12.1001C205.624 11.6601 205.764 11.3401 206.044 11.1401C206.337 10.9268 206.777 10.8201 207.364 10.8201V19.7001ZM213.478 21.1801C212.331 21.1801 211.404 20.8734 210.698 20.2601C210.004 19.6468 209.658 18.8401 209.658 17.8401C209.658 16.8268 210.024 16.0134 210.758 15.4001C211.491 14.7734 212.458 14.4601 213.658 14.4601C214.938 14.4601 215.991 14.9134 216.818 15.8201L216.898 15.7401C216.751 15.5801 216.584 15.4134 216.398 15.2401V14.4001C216.398 13.7201 216.184 13.1934 215.758 12.8201C215.331 12.4468 214.724 12.2601 213.938 12.2601C212.538 12.2601 211.538 12.8134 210.938 13.9201C210.724 13.8134 210.544 13.6734 210.398 13.5001C210.264 13.3134 210.198 13.1268 210.198 12.9401C210.198 12.5801 210.378 12.2401 210.738 11.9201C211.098 11.5868 211.571 11.3201 212.158 11.1201C212.758 10.9201 213.384 10.8201 214.038 10.8201C215.304 10.8201 216.298 11.1334 217.018 11.7601C217.751 12.3868 218.118 13.2534 218.118 14.3601V19.8401C218.118 20.3068 217.984 20.6468 217.718 20.8601C217.451 21.0734 217.031 21.1801 216.458 21.1801V20.2401C216.738 19.9468 216.891 19.7734 216.918 19.7201L216.838 19.6401C215.971 20.6668 214.851 21.1801 213.478 21.1801ZM213.778 19.8001C214.604 19.8001 215.251 19.6268 215.718 19.2801C216.198 18.9334 216.438 18.4534 216.438 17.8401C216.438 17.2268 216.204 16.7401 215.738 16.3801C215.271 16.0201 214.631 15.8401 213.818 15.8401C213.058 15.8401 212.458 16.0201 212.018 16.3801C211.591 16.7268 211.378 17.2134 211.378 17.8401C211.378 18.4668 211.584 18.9534 211.998 19.3001C212.424 19.6334 213.018 19.8001 213.778 19.8001ZM223.722 21.1801C222.749 21.1801 222.022 20.9134 221.542 20.3801C221.062 19.8334 220.822 19.1201 220.822 18.2401V8.10007C220.822 7.66007 220.962 7.34007 221.242 7.14007C221.535 6.92674 221.975 6.82007 222.562 6.82007V18.1801C222.562 18.7001 222.669 19.0734 222.882 19.3001C223.095 19.5268 223.449 19.6401 223.942 19.6401C224.435 19.6401 224.889 19.5201 225.302 19.2801C225.475 19.4801 225.562 19.7134 225.562 19.9801C225.562 20.3001 225.395 20.5801 225.062 20.8201C224.729 21.0601 224.282 21.1801 223.722 21.1801ZM237.814 21.1801C236.694 21.1801 235.721 21.0201 234.894 20.7001C234.081 20.3801 233.461 19.9534 233.034 19.4201C232.607 18.8868 232.394 18.3134 232.394 17.7001C232.394 17.1934 232.527 16.8068 232.794 16.5401C233.061 16.2601 233.467 16.1201 234.014 16.1201C234.014 17.2534 234.354 18.1201 235.034 18.7201C235.714 19.3068 236.667 19.6001 237.894 19.6001C239.067 19.6001 239.967 19.4068 240.594 19.0201C241.221 18.6201 241.534 18.0334 241.534 17.2601C241.534 16.7934 241.414 16.4134 241.174 16.1201C240.947 15.8134 240.554 15.5534 239.994 15.3401C239.447 15.1134 238.654 14.8868 237.614 14.6601C236.387 14.3934 235.414 14.0868 234.694 13.7401C233.974 13.3801 233.447 12.9468 233.114 12.4401C232.781 11.9334 232.614 11.3068 232.614 10.5601C232.614 9.8134 232.821 9.16007 233.234 8.60007C233.661 8.02674 234.261 7.58674 235.034 7.28007C235.807 6.9734 236.707 6.82007 237.734 6.82007C238.707 6.82007 239.574 6.96007 240.334 7.24007C241.107 7.50674 241.707 7.8934 242.134 8.40007C242.574 8.8934 242.794 9.4534 242.794 10.0801C242.794 10.4668 242.667 10.7734 242.414 11.0001C242.174 11.2134 241.794 11.3201 241.274 11.3201C241.127 10.3068 240.767 9.56674 240.194 9.10007C239.634 8.6334 238.814 8.40007 237.734 8.40007C236.694 8.40007 235.894 8.58674 235.334 8.96007C234.774 9.32007 234.494 9.8334 234.494 10.5001C234.494 10.9668 234.594 11.3534 234.794 11.6601C235.007 11.9534 235.361 12.2068 235.854 12.4201C236.361 12.6334 237.067 12.8401 237.974 13.0401C239.334 13.3334 240.401 13.6601 241.174 14.0201C241.961 14.3801 242.527 14.8201 242.874 15.3401C243.221 15.8601 243.394 16.5001 243.394 17.2601C243.394 18.4734 242.887 19.4334 241.874 20.1401C240.861 20.8334 239.507 21.1801 237.814 21.1801ZM245.685 12.2401C245.685 11.8001 245.818 11.4534 246.085 11.2001C246.365 10.9468 246.785 10.8201 247.345 10.8201V11.9401L246.945 12.4601L247.005 12.5401C247.418 12.0068 247.892 11.5868 248.425 11.2801C248.958 10.9734 249.592 10.8201 250.325 10.8201C251.472 10.8201 252.398 11.1401 253.105 11.7801C253.812 12.4068 254.165 13.2468 254.165 14.3001V17.7201C254.165 18.7734 253.798 19.6134 253.065 20.2401C252.332 20.8668 251.378 21.1801 250.205 21.1801C249.578 21.1801 248.998 21.0534 248.465 20.8001C247.945 20.5334 247.485 20.1868 247.085 19.7601L247.025 19.8601C247.118 19.9934 247.258 20.1401 247.445 20.3001V23.8201C247.445 24.7268 246.858 25.1801 245.685 25.1801V12.2401ZM249.945 19.6401C250.732 19.6401 251.345 19.4668 251.785 19.1201C252.225 18.7601 252.445 18.2668 252.445 17.6401V14.3801C252.445 13.7268 252.225 13.2268 251.785 12.8801C251.345 12.5334 250.725 12.3601 249.925 12.3601C249.218 12.3601 248.625 12.5468 248.145 12.9201C247.665 13.2801 247.425 13.7334 247.425 14.2801V17.7401C247.425 18.2734 247.652 18.7268 248.105 19.1001C248.558 19.4601 249.172 19.6401 249.945 19.6401ZM260.266 21.1801C259.453 21.1801 258.713 21.0268 258.046 20.7201C257.393 20.4134 256.88 20.0001 256.506 19.4801C256.146 18.9468 255.966 18.3534 255.966 17.7001V14.4201C255.966 13.7534 256.146 13.1468 256.506 12.6001C256.88 12.0534 257.393 11.6201 258.046 11.3001C258.7 10.9801 259.44 10.8201 260.266 10.8201C261.093 10.8201 261.833 10.9801 262.486 11.3001C263.153 11.6201 263.666 12.0534 264.026 12.6001C264.4 13.1468 264.586 13.7534 264.586 14.4201V17.7001C264.586 18.3534 264.4 18.9468 264.026 19.4801C263.653 20.0001 263.14 20.4134 262.486 20.7201C261.833 21.0268 261.093 21.1801 260.266 21.1801ZM260.266 19.6801C261.066 19.6801 261.7 19.4934 262.166 19.1201C262.646 18.7334 262.886 18.2334 262.886 17.6201V14.4801C262.886 13.8401 262.646 13.3201 262.166 12.9201C261.7 12.5201 261.066 12.3201 260.266 12.3201C259.48 12.3201 258.846 12.5201 258.366 12.9201C257.886 13.3201 257.646 13.8401 257.646 14.4801V17.6201C257.646 18.2334 257.88 18.7334 258.346 19.1201C258.826 19.4934 259.466 19.6801 260.266 19.6801ZM271.236 12.3601C270.489 12.3601 269.869 12.5868 269.376 13.0401C268.883 13.4801 268.636 14.0201 268.636 14.6601V19.9001C268.636 20.3401 268.489 20.6668 268.196 20.8801C267.916 21.0801 267.483 21.1801 266.896 21.1801V12.3001C266.896 11.3134 267.456 10.8201 268.576 10.8201V12.0401C268.363 12.2668 268.216 12.4668 268.136 12.6401L268.216 12.7201C269.069 11.4534 270.136 10.8201 271.416 10.8201C271.896 10.8201 272.263 10.9401 272.516 11.1801C272.769 11.4068 272.896 11.6868 272.896 12.0201C272.896 12.2601 272.836 12.4734 272.716 12.6601C272.343 12.4601 271.849 12.3601 271.236 12.3601ZM278.474 21.1801C277.527 21.1801 276.82 20.9134 276.354 20.3801C275.887 19.8334 275.654 19.1201 275.654 18.2401V12.4001H273.794C273.794 11.9468 273.894 11.6001 274.094 11.3601C274.294 11.1201 274.567 11.0001 274.914 11.0001H275.674V9.10007C275.674 8.66007 275.814 8.34007 276.094 8.14007C276.387 7.92674 276.82 7.82007 277.394 7.82007V11.0001H280.054C280.054 11.9334 279.634 12.4001 278.794 12.4001H277.414V18.1801C277.414 18.7134 277.507 19.0934 277.694 19.3201C277.894 19.5334 278.247 19.6401 278.754 19.6401C279.22 19.6401 279.66 19.5201 280.074 19.2801C280.247 19.4534 280.334 19.6868 280.334 19.9801C280.334 20.3001 280.167 20.5801 279.834 20.8201C279.5 21.0601 279.047 21.1801 278.474 21.1801ZM286.063 21.1801C285.383 21.1801 284.743 21.0801 284.143 20.8801C283.543 20.6668 283.056 20.3668 282.683 19.9801C282.323 19.5934 282.143 19.1401 282.143 18.6201C282.143 17.9801 282.53 17.6334 283.303 17.5801C283.436 18.3268 283.75 18.8801 284.243 19.2401C284.75 19.5868 285.39 19.7601 286.163 19.7601C286.936 19.7601 287.536 19.6468 287.963 19.4201C288.39 19.1934 288.603 18.8468 288.603 18.3801C288.603 18.0468 288.516 17.7801 288.343 17.5801C288.17 17.3668 287.89 17.1868 287.503 17.0401C287.13 16.8801 286.59 16.7268 285.883 16.5801C285.003 16.3801 284.303 16.1668 283.783 15.9401C283.263 15.7134 282.863 15.4134 282.583 15.0401C282.316 14.6668 282.183 14.1734 282.183 13.5601C282.183 13.0401 282.343 12.5734 282.663 12.1601C282.983 11.7334 283.423 11.4068 283.983 11.1801C284.556 10.9401 285.203 10.8201 285.923 10.8201C286.59 10.8201 287.216 10.9134 287.803 11.1001C288.403 11.2868 288.883 11.5534 289.243 11.9001C289.616 12.2468 289.803 12.6468 289.803 13.1001C289.803 13.4068 289.683 13.6534 289.443 13.8401C289.203 14.0134 288.87 14.1134 288.443 14.1401C288.403 13.5534 288.163 13.0934 287.723 12.7601C287.296 12.4134 286.696 12.2401 285.923 12.2401C285.283 12.2401 284.776 12.3601 284.403 12.6001C284.03 12.8401 283.843 13.1601 283.843 13.5601C283.843 13.9868 284.016 14.3068 284.363 14.5201C284.723 14.7201 285.33 14.9134 286.183 15.1001C287.583 15.3801 288.61 15.7668 289.263 16.2601C289.93 16.7401 290.263 17.4268 290.263 18.3201C290.263 19.2268 289.896 19.9334 289.163 20.4401C288.43 20.9334 287.396 21.1801 286.063 21.1801ZM297.716 7.88007C297.716 7.62674 297.81 7.42007 297.996 7.26007C298.183 7.08674 298.41 7.00007 298.676 7.00007H307.596C307.596 7.56007 307.483 7.9734 307.256 8.24007C307.03 8.50674 306.683 8.64007 306.216 8.64007H299.596V13.0201H305.196C305.196 13.5801 305.083 13.9934 304.856 14.2601C304.63 14.5268 304.283 14.6601 303.816 14.6601H299.596V19.6601C299.596 20.1801 299.443 20.5668 299.136 20.8201C298.83 21.0601 298.356 21.1801 297.716 21.1801V7.88007ZM310.818 21.1801C310.005 21.1801 309.278 21.0268 308.638 20.7201C307.998 20.4001 307.498 19.9668 307.138 19.4201C306.778 18.8601 306.598 18.2334 306.598 17.5401V14.5801C306.598 13.8734 306.785 13.2334 307.158 12.6601C307.545 12.0868 308.058 11.6401 308.698 11.3201C309.352 10.9868 310.058 10.8201 310.818 10.8201C311.578 10.8201 312.272 10.9801 312.898 11.3001C313.538 11.6201 314.038 12.0601 314.398 12.6201C314.772 13.1801 314.958 13.8134 314.958 14.5201V15.8001C314.958 16.0134 314.878 16.1934 314.718 16.3401C314.558 16.4868 314.365 16.5601 314.138 16.5601H308.298V17.4601C308.298 18.1401 308.512 18.6868 308.938 19.1001C309.378 19.5134 310.005 19.7201 310.818 19.7201C311.632 19.7201 312.252 19.5401 312.678 19.1801C313.105 18.8201 313.318 18.3334 313.318 17.7201C313.718 17.6934 314.052 17.7734 314.318 17.9601C314.598 18.1334 314.738 18.3934 314.738 18.7401C314.738 19.1668 314.552 19.5668 314.178 19.9401C313.818 20.3134 313.338 20.6134 312.738 20.8401C312.138 21.0668 311.498 21.1801 310.818 21.1801ZM313.338 15.2001V14.5201C313.338 13.8534 313.105 13.3134 312.638 12.9001C312.185 12.4734 311.578 12.2601 310.818 12.2601C310.058 12.2601 309.445 12.4734 308.978 12.9001C308.525 13.3134 308.298 13.8534 308.298 14.5201V15.2001H313.338ZM320.887 21.1801C320.207 21.1801 319.567 21.0801 318.967 20.8801C318.367 20.6668 317.881 20.3668 317.507 19.9801C317.147 19.5934 316.967 19.1401 316.967 18.6201C316.967 17.9801 317.354 17.6334 318.127 17.5801C318.261 18.3268 318.574 18.8801 319.067 19.2401C319.574 19.5868 320.214 19.7601 320.987 19.7601C321.761 19.7601 322.361 19.6468 322.787 19.4201C323.214 19.1934 323.427 18.8468 323.427 18.3801C323.427 18.0468 323.341 17.7801 323.167 17.5801C322.994 17.3668 322.714 17.1868 322.327 17.0401C321.954 16.8801 321.414 16.7268 320.707 16.5801C319.827 16.3801 319.127 16.1668 318.607 15.9401C318.087 15.7134 317.687 15.4134 317.407 15.0401C317.141 14.6668 317.007 14.1734 317.007 13.5601C317.007 13.0401 317.167 12.5734 317.487 12.1601C317.807 11.7334 318.247 11.4068 318.807 11.1801C319.381 10.9401 320.027 10.8201 320.747 10.8201C321.414 10.8201 322.041 10.9134 322.627 11.1001C323.227 11.2868 323.707 11.5534 324.067 11.9001C324.441 12.2468 324.627 12.6468 324.627 13.1001C324.627 13.4068 324.507 13.6534 324.267 13.8401C324.027 14.0134 323.694 14.1134 323.267 14.1401C323.227 13.5534 322.987 13.0934 322.547 12.7601C322.121 12.4134 321.521 12.2401 320.747 12.2401C320.107 12.2401 319.601 12.3601 319.227 12.6001C318.854 12.8401 318.667 13.1601 318.667 13.5601C318.667 13.9868 318.841 14.3068 319.187 14.5201C319.547 14.7201 320.154 14.9134 321.007 15.1001C322.407 15.3801 323.434 15.7668 324.087 16.2601C324.754 16.7401 325.087 17.4268 325.087 18.3201C325.087 19.2268 324.721 19.9334 323.987 20.4401C323.254 20.9334 322.221 21.1801 320.887 21.1801ZM330.466 21.1801C329.519 21.1801 328.813 20.9134 328.346 20.3801C327.879 19.8334 327.646 19.1201 327.646 18.2401V12.4001H325.786C325.786 11.9468 325.886 11.6001 326.086 11.3601C326.286 11.1201 326.559 11.0001 326.906 11.0001H327.666V9.10007C327.666 8.66007 327.806 8.34007 328.086 8.14007C328.379 7.92674 328.813 7.82007 329.386 7.82007V11.0001H332.046C332.046 11.9334 331.626 12.4001 330.786 12.4001H329.406V18.1801C329.406 18.7134 329.499 19.0934 329.686 19.3201C329.886 19.5334 330.239 19.6401 330.746 19.6401C331.213 19.6401 331.653 19.5201 332.066 19.2801C332.239 19.4534 332.326 19.6868 332.326 19.9801C332.326 20.3001 332.159 20.5801 331.826 20.8201C331.493 21.0601 331.039 21.1801 330.466 21.1801ZM343.391 21.1801C342.578 21.1801 341.838 21.0268 341.171 20.7201C340.518 20.4134 340.005 20.0001 339.631 19.4801C339.271 18.9468 339.091 18.3534 339.091 17.7001V14.4201C339.091 13.7534 339.271 13.1468 339.631 12.6001C340.005 12.0534 340.518 11.6201 341.171 11.3001C341.825 10.9801 342.565 10.8201 343.391 10.8201C344.218 10.8201 344.958 10.9801 345.611 11.3001C346.278 11.6201 346.791 12.0534 347.151 12.6001C347.525 13.1468 347.711 13.7534 347.711 14.4201V17.7001C347.711 18.3534 347.525 18.9468 347.151 19.4801C346.778 20.0001 346.265 20.4134 345.611 20.7201C344.958 21.0268 344.218 21.1801 343.391 21.1801ZM343.391 19.6801C344.191 19.6801 344.825 19.4934 345.291 19.1201C345.771 18.7334 346.011 18.2334 346.011 17.6201V14.4801C346.011 13.8401 345.771 13.3201 345.291 12.9201C344.825 12.5201 344.191 12.3201 343.391 12.3201C342.605 12.3201 341.971 12.5201 341.491 12.9201C341.011 13.3201 340.771 13.8401 340.771 14.4801V17.6201C340.771 18.2334 341.005 18.7334 341.471 19.1201C341.951 19.4934 342.591 19.6801 343.391 19.6801ZM350.083 12.4001H348.423C348.423 11.4668 348.769 11.0001 349.463 11.0001H350.083V9.78007C350.083 8.9134 350.329 8.20674 350.823 7.66007C351.316 7.10007 352.056 6.82007 353.043 6.82007C353.603 6.82007 354.036 6.94674 354.343 7.20007C354.649 7.44007 354.803 7.72007 354.803 8.04007C354.803 8.32007 354.716 8.54674 354.543 8.72007C354.129 8.48007 353.683 8.36007 353.203 8.36007C352.709 8.36007 352.356 8.48007 352.143 8.72007C351.929 8.96007 351.823 9.34007 351.823 9.86007V11.0001H354.323C354.323 11.4801 354.216 11.8334 354.003 12.0601C353.803 12.2868 353.489 12.4001 353.063 12.4001H351.823V19.9001C351.823 20.3401 351.676 20.6668 351.383 20.8801C351.103 21.0801 350.669 21.1801 350.083 21.1801V12.4001ZM363.012 21.0001C362.746 21.0001 362.519 20.9201 362.332 20.7601C362.146 20.5868 362.052 20.3734 362.052 20.1201V7.88007C362.052 7.62674 362.139 7.42007 362.312 7.26007C362.499 7.08674 362.732 7.00007 363.012 7.00007H367.692C368.826 7.00007 369.826 7.2134 370.692 7.64007C371.559 8.06674 372.232 8.66674 372.712 9.44007C373.206 10.2001 373.452 11.0734 373.452 12.0601V15.9001C373.452 16.8868 373.206 17.7668 372.712 18.5401C372.232 19.3134 371.552 19.9201 370.672 20.3601C369.806 20.7868 368.812 21.0001 367.692 21.0001H363.012ZM367.492 19.3601C368.772 19.3601 369.772 19.0601 370.492 18.4601C371.212 17.8468 371.572 17.0001 371.572 15.9201V12.0401C371.572 10.9734 371.212 10.1401 370.492 9.54007C369.772 8.94007 368.772 8.64007 367.492 8.64007H363.932V19.3601H367.492ZM378.928 8.66007H374.048C374.048 7.5534 374.568 7.00007 375.608 7.00007H385.668C385.668 8.10674 385.148 8.66007 384.108 8.66007H380.808V19.6201C380.808 20.1268 380.648 20.5134 380.328 20.7801C380.008 21.0468 379.541 21.1801 378.928 21.1801V8.66007ZM393.275 21.1801C392.222 21.1801 391.268 20.9668 390.415 20.5401C389.562 20.1134 388.888 19.5268 388.395 18.7801C387.915 18.0201 387.675 17.1734 387.675 16.2401V8.38007C387.675 7.8734 387.835 7.48674 388.155 7.22007C388.475 6.9534 388.942 6.82007 389.555 6.82007V16.2401C389.555 17.2134 389.895 18.0001 390.575 18.6001C391.268 19.2001 392.168 19.5001 393.275 19.5001C394.382 19.5001 395.275 19.2001 395.955 18.6001C396.635 18.0001 396.975 17.2134 396.975 16.2401V8.38007C396.975 7.8734 397.135 7.48674 397.455 7.22007C397.775 6.9534 398.242 6.82007 398.855 6.82007V16.2401C398.855 17.1734 398.615 18.0201 398.135 18.7801C397.655 19.5268 396.988 20.1134 396.135 20.5401C395.282 20.9668 394.328 21.1801 393.275 21.1801Z" fill="#160C28"/>
<path d="M290.595 129.252C289.214 129.252 287.954 129.028 286.815 128.58C285.695 128.113 284.808 127.488 284.155 126.704C283.52 125.901 283.203 125.005 283.203 124.016C283.203 123.307 283.39 122.784 283.763 122.448C284.136 122.093 284.724 121.916 285.527 121.916L286.031 121.944C285.975 122.28 285.947 122.616 285.947 122.952C285.947 124.109 286.358 125.015 287.179 125.668C288 126.303 289.139 126.62 290.595 126.62C292.07 126.62 293.208 126.219 294.011 125.416C294.832 124.595 295.243 123.447 295.243 121.972C295.243 120.497 294.842 119.377 294.039 118.612C293.236 117.847 292.079 117.464 290.567 117.464C288.887 117.464 287.524 117.931 286.479 118.864C286.124 119.163 285.732 119.312 285.303 119.312C284.892 119.312 284.538 119.191 284.239 118.948C283.959 118.687 283.819 118.351 283.819 117.94L283.847 117.716L284.967 110.492C285.023 110.137 285.182 109.867 285.443 109.68C285.704 109.493 286.05 109.4 286.479 109.4H297.287C297.287 110.259 297.1 110.912 296.727 111.36C296.354 111.789 295.803 112.004 295.075 112.004H287.347L286.759 115.756C286.423 115.999 286.068 116.288 285.695 116.624L285.807 116.792C286.516 116.213 287.356 115.756 288.327 115.42C289.298 115.065 290.25 114.888 291.183 114.888C293.348 114.888 295.056 115.523 296.307 116.792C297.558 118.043 298.183 119.769 298.183 121.972C298.183 123.447 297.875 124.735 297.259 125.836C296.643 126.937 295.756 127.787 294.599 128.384C293.46 128.963 292.126 129.252 290.595 129.252ZM300.566 122.084C300.566 121.3 300.744 120.693 301.098 120.264C301.453 119.816 301.976 119.592 302.666 119.592H311.122C311.122 120.376 310.945 120.992 310.59 121.44C310.236 121.869 309.704 122.084 308.994 122.084H300.566ZM324.615 112.004H315.431C314.722 112.004 314.181 111.78 313.807 111.332C313.434 110.884 313.247 110.24 313.247 109.4H326.883C327.313 109.4 327.658 109.521 327.919 109.764C328.181 109.988 328.311 110.277 328.311 110.632C328.311 110.837 328.255 111.071 328.143 111.332L319.687 128.188C319.314 128.897 318.754 129.252 318.007 129.252C317.634 129.252 317.307 129.205 317.027 129.112C316.747 129.037 316.477 128.897 316.215 128.692L324.615 112.004ZM339.688 129.252C339.035 129.159 338.531 128.907 338.176 128.496C337.822 128.085 337.644 127.591 337.644 127.012C337.644 126.583 337.738 126.153 337.924 125.724L344.532 110.128C344.812 109.475 345.307 109.148 346.016 109.148C346.707 109.148 347.183 109.475 347.444 110.128L354.052 125.724C354.239 126.153 354.332 126.583 354.332 127.012C354.332 127.591 354.155 128.085 353.8 128.496C353.446 128.907 352.942 129.159 352.288 129.252L349.908 123.568H342.096L339.688 129.252ZM348.984 120.992L345.54 112.34L345.288 112.452L345.848 113.88L342.992 120.992H348.984ZM357.374 116.876C357.374 116.241 357.589 115.728 358.018 115.336C358.466 114.944 359.129 114.748 360.006 114.748V116.288C359.913 116.419 359.82 116.549 359.726 116.68C359.633 116.792 359.54 116.913 359.446 117.044L359.558 117.156C360.137 116.391 360.79 115.803 361.518 115.392C362.265 114.963 363.161 114.748 364.206 114.748C365.793 114.748 367.072 115.205 368.042 116.12C369.032 117.016 369.526 118.201 369.526 119.676V124.352C369.526 125.827 369.004 127.012 367.958 127.908C366.932 128.804 365.597 129.252 363.954 129.252C363.152 129.252 362.377 129.084 361.63 128.748C360.884 128.393 360.24 127.936 359.698 127.376L359.614 127.516C359.745 127.703 359.941 127.908 360.202 128.132V132.808C360.202 134.171 359.26 134.852 357.374 134.852V116.876ZM363.478 126.816C364.524 126.816 365.336 126.583 365.914 126.116C366.493 125.649 366.782 125.005 366.782 124.184V119.816C366.782 118.976 366.493 118.332 365.914 117.884C365.336 117.417 364.514 117.184 363.45 117.184C362.517 117.184 361.733 117.427 361.098 117.912C360.482 118.379 360.174 118.967 360.174 119.676V124.324C360.174 125.033 360.473 125.631 361.07 126.116C361.686 126.583 362.489 126.816 363.478 126.816ZM379.346 117.184C378.282 117.184 377.405 117.492 376.714 118.108C376.024 118.724 375.678 119.48 375.678 120.376V127.348C375.678 128.02 375.445 128.505 374.978 128.804C374.53 129.103 373.83 129.252 372.878 129.252V117.016C372.878 115.504 373.774 114.748 375.566 114.748V116.428C375.324 116.708 375.109 116.997 374.922 117.296L375.062 117.408C376.238 115.635 377.722 114.748 379.514 114.748C380.224 114.748 380.765 114.925 381.138 115.28C381.53 115.635 381.726 116.073 381.726 116.596C381.726 116.988 381.624 117.324 381.418 117.604C380.896 117.324 380.205 117.184 379.346 117.184ZM385.777 112.9C385.217 112.9 384.741 112.723 384.349 112.368C383.957 112.013 383.761 111.565 383.761 111.024C383.761 110.483 383.957 110.035 384.349 109.68C384.741 109.325 385.217 109.148 385.777 109.148C386.337 109.148 386.804 109.325 387.177 109.68C387.569 110.035 387.765 110.483 387.765 111.024C387.765 111.565 387.569 112.013 387.177 112.368C386.804 112.723 386.337 112.9 385.777 112.9ZM384.377 116.652C384.377 115.98 384.601 115.495 385.049 115.196C385.516 114.897 386.216 114.748 387.149 114.748V127.348C387.149 128.001 386.916 128.487 386.449 128.804C386.001 129.103 385.31 129.252 384.377 129.252V116.652ZM395.728 129.252C394.291 129.252 393.217 128.86 392.508 128.076C391.799 127.273 391.444 126.228 391.444 124.94V111.052C391.444 110.38 391.668 109.895 392.116 109.596C392.583 109.297 393.292 109.148 394.244 109.148V124.828C394.244 125.537 394.384 126.051 394.664 126.368C394.963 126.667 395.448 126.816 396.12 126.816C396.811 126.816 397.464 126.639 398.08 126.284C398.36 126.601 398.5 126.975 398.5 127.404C398.5 127.889 398.248 128.319 397.744 128.692C397.259 129.065 396.587 129.252 395.728 129.252Z" fill="#160C28"/>
</svg>
