<svg width="788" height="243" viewBox="0 0 788 243" fill="none" xmlns="http://www.w3.org/2000/svg">
<path d="M357.733 67.9988H276.472V93.6946C283.79 86.9083 290.569 82.5457 296.809 80.6067C300.595 79.4903 304.584 78.944 308.594 78.9926C324.974 78.9926 337.224 85.7789 345.345 99.3515C348.747 104.787 350.574 110.828 350.678 116.976C350.678 127.524 345.546 137.054 335.28 145.566C332.858 147.625 330.302 149.566 327.623 151.383L311.106 143.036C315.27 139.352 320.007 134.815 325.318 129.424C331.294 123.365 334.311 115.706 334.368 106.448C334.641 101.575 333.094 96.7519 329.946 92.6621C328.418 90.6101 326.266 88.9429 323.714 87.8351C321.163 86.7273 318.306 86.2197 315.442 86.3654C309.707 86.4817 303.53 88.3237 296.912 91.8914C291.193 94.9521 286.193 98.8817 282.167 103.481C277.935 108.251 275.818 112.851 275.818 117.282V151.063L257.048 142.512V67.9988H150.375V57.8193H257.048C257.048 41.1541 251.886 26.9319 241.563 15.1528C235.438 8.05631 229.754 3.06353 224.512 0.174505L244.866 0C256.141 5.20606 265.1 16.4519 271.741 33.7376C274.812 41.4935 276.409 49.6118 276.472 57.7902H357.733V67.9988Z" fill="#F1F2F2" fill-opacity="0.5"/>
<path d="M481.591 57.7903L481.384 67.9697H471.061V84.3441C469.857 86.38 467.035 90.6893 462.596 97.272L426.861 150.38C420.873 150.38 413.051 146.381 403.393 138.382C392.794 129.657 387.49 119.963 387.478 109.298C387.51 103.779 389.707 98.4245 393.724 94.0728C395.178 92.7057 396.155 91.0242 396.545 89.2157C396.545 87.238 394.567 86.3073 390.609 86.3073C387.39 86.3894 384.322 87.4835 382.007 89.3757C379.707 91.2965 377.524 93.3157 375.469 95.4252L362.479 85.4639C366.166 82.6385 370.632 80.6387 375.469 79.647C378.12 79.2069 380.819 79.0071 383.521 79.0508C401.701 78.8763 410.797 87.0732 410.808 103.641C410.808 105.871 410.522 109.192 409.948 113.603C409.38 117.965 409.105 121.354 409.105 123.564C409.105 132.522 410.998 137.398 414.783 138.193C416.859 138.193 419.319 136.051 422.164 131.766L452.806 84.9258V67.9988H355.012V57.8194L481.591 57.7903Z" fill="#F1F2F2" fill-opacity="0.5"/>
<path d="M583.259 67.9983H516.159V81.6969C516.472 81.7181 516.763 81.8436 516.967 82.0459C517.144 82.229 517.396 82.3486 517.673 82.3804C517.365 82.4121 517.052 82.3822 516.761 82.2932C516.761 82.0169 521.75 81.1007 531.764 79.5738C535.385 79.0092 539.059 78.722 542.741 78.7158C557.847 78.7158 567.545 82.2932 571.835 89.4479C574.725 94.2177 576.171 103.835 576.171 118.299V151.063C574.76 150.607 569.42 148.76 560.152 145.522C560.152 143.719 559.722 142.614 558.845 142.047C555.283 143.806 552.376 145.129 550.087 146.046C542.152 149.071 533.517 150.562 524.813 150.408C511.576 150.408 501.374 146.889 494.205 139.851C490.869 136.724 489.029 132.66 489.043 128.45C489.043 123.738 491.79 119.06 497.284 114.417C507.975 105.391 521.234 100.878 537.063 100.878C546.663 100.878 554.383 102.749 560.221 106.491V98.6385C557.982 95.9728 555.036 93.7866 551.619 92.2545C547.984 91.064 544.083 90.5674 540.194 90.8003C530.001 90.8654 519.917 92.5731 510.481 95.8318C506.455 97.2376 502.526 98.5124 498.695 99.6564V93.3451C499.573 92.7198 500.846 91.7746 502.532 90.524L503.031 90.015V67.9983H477.516V57.8188H583.259V67.9983ZM560.204 121.949C560.204 119.468 556.683 117.228 549.64 115.231C544.952 113.773 540.024 112.939 535.033 112.759C520.867 112.759 509.523 117.073 501.001 125.701C497.56 129.162 495.839 131.998 495.839 134.208C497.227 138.348 502.761 140.418 512.442 140.418C524.503 140.519 536.358 137.78 546.681 132.507C555.719 127.912 560.233 124.392 560.221 121.949H560.204Z" fill="#F1F2F2" fill-opacity="0.5"/>
<path d="M681.327 67.9983H614.227V81.6969C614.383 81.7058 614.535 81.7413 614.674 81.8013C614.813 81.8613 614.936 81.9445 615.036 82.0459C615.212 82.229 615.464 82.3486 615.741 82.3804C615.433 82.4105 615.121 82.3807 614.829 82.2932C614.829 82.0169 619.836 81.1007 629.832 79.5738C633.453 79.0098 637.127 78.7227 640.809 78.7158C655.915 78.7158 665.613 82.2932 669.903 89.4479C672.794 94.2177 674.239 103.835 674.239 118.299V151.063C672.828 150.607 667.489 148.76 658.221 145.522C658.221 143.719 657.791 142.614 656.913 142.047C653.369 143.806 650.444 145.129 648.156 146.046C640.22 149.071 631.585 150.562 622.881 150.408C609.668 150.408 599.465 146.889 592.273 139.851C588.938 136.724 587.098 132.66 587.112 128.45C587.112 123.738 589.864 119.06 595.37 114.417C606.037 105.391 619.291 100.878 635.131 100.878C644.732 100.878 652.451 102.749 658.29 106.491V98.6385C656.054 95.9695 653.107 93.7825 649.687 92.2545C646.053 91.0626 642.151 90.566 638.263 90.8003C628.07 90.8672 617.986 92.5748 608.549 95.8318C604.523 97.2376 600.6 98.5124 596.781 99.6564V93.3451C597.641 92.7198 598.932 91.7746 600.6 90.524L601.099 90.015V67.9983H580.453V57.8188H681.327V67.9983ZM658.255 121.949C658.255 119.463 654.814 117.223 647.691 115.231C643.004 113.77 638.075 112.936 633.084 112.759C618.918 112.759 607.574 117.073 599.052 125.701C595.611 129.162 593.89 131.998 593.89 134.208C595.301 138.348 600.836 140.418 610.493 140.418C622.554 140.519 634.41 137.78 644.732 132.507C653.713 127.912 658.198 124.392 658.186 121.949H658.255Z" fill="#F1F2F2" fill-opacity="0.5"/>
<path d="M787.998 67.9983H679.742V57.8188H787.998V67.9983ZM766.336 105.444C766.336 91.8716 758.714 85.061 743.47 85.0125C732.195 85.0125 722.767 90.0053 715.185 99.9909C708.642 108.378 705.144 118.2 705.12 128.246V152.968L688.603 145.697V81.7115H705.929V91.8909L714.875 86.1904C721.99 81.3401 730.821 78.6423 739.961 78.5268C745.641 78.4423 751.269 79.4556 756.416 81.4894C761.562 83.5232 766.091 86.5238 769.657 90.2622C777.044 97.648 780.984 107.06 780.737 116.729C780.737 129.613 774.291 141.984 761.398 153.84L741.974 143.544C748.007 138.503 753.14 133.85 757.372 129.584C763.348 123.602 766.336 115.556 766.336 105.444Z" fill="#F1F2F2" fill-opacity="0.5"/>
<path d="M199.099 62.6037V242.605H191.254L174.599 221.04V149.783C170.14 151.091 165.574 152.121 160.938 152.866C156.557 153.553 152.111 153.899 147.655 153.899C145.091 153.895 142.528 153.764 139.982 153.506C137.146 153.209 134.336 152.757 131.569 152.154C131.809 153.739 132.033 155.513 132.222 157.462C132.412 159.41 132.498 161.286 132.498 163.075C132.598 169.231 131.325 175.349 128.747 181.107C126.421 186.274 122.779 190.946 118.08 194.791C113.326 198.598 107.682 201.521 101.511 203.371C94.6077 205.437 87.327 206.456 80.0044 206.381C69.9652 206.541 60.0334 204.613 51.0824 200.768C42.5411 196.976 34.9511 191.82 28.7328 185.586C21.9757 178.78 16.3599 171.22 12.0437 163.118C7.2228 154.174 3.1971 144.939 0 135.489L8.98114 133.278C11.9921 140.641 15.8472 147.737 20.4914 154.466C24.5412 160.381 29.512 165.81 35.2708 170.608C40.4046 174.854 46.3567 178.331 52.8717 180.889C59.1855 183.317 66.048 184.558 72.9846 184.524C77.9076 184.552 82.8041 183.913 87.4887 182.634C91.8848 181.454 95.973 179.573 99.5323 177.093C102.992 174.627 105.77 171.549 107.67 168.077C109.739 164.2 110.762 159.983 110.664 155.731C110.818 150.154 108.885 144.678 105.141 140.084C101.413 135.673 95.6153 132.12 87.7467 129.424C84.6426 128.295 81.4158 127.423 78.1118 126.821C75.3171 126.278 72.4625 125.986 69.5952 125.949C66.8688 126 64.1497 126.209 61.4571 126.574C58.0161 127.001 54.1162 127.636 49.7576 128.479L29.9371 108.789L30.1264 107.524C40.3832 106.916 50.5597 105.568 60.5453 103.496C68.5782 101.861 76.3398 99.3895 83.6519 96.1377C89.3024 93.6671 94.3238 90.2826 98.4312 86.1764C101.732 82.8486 103.557 78.6524 103.593 74.31C103.599 71.4992 102.796 68.7293 101.253 66.2392C99.692 63.7075 97.5583 61.4595 94.9729 59.6225C92.1076 57.643 88.8439 56.116 85.338 55.1145C81.423 53.9859 77.3102 53.4254 73.1739 53.4567C65.2045 53.6809 57.3359 55.0327 49.8952 57.4558C39.7275 60.6579 30.0519 64.8811 21.0764 70.0347L4.67983 48.8468C13.1939 45.3873 22.0999 42.6638 31.2619 40.7178C39.2229 39.0912 47.3826 38.2614 55.5729 38.2457C64.4562 38.158 73.291 39.3632 81.6905 41.8085C89.1613 43.9697 96.1047 47.2613 102.182 51.5226C107.807 55.5182 112.368 60.474 115.568 66.0647C118.748 71.6937 120.378 77.8589 120.333 84.0968C120.57 91.7224 117.553 99.1656 111.834 105.067C106.225 110.825 97.3071 115.702 85.0799 119.696C94.4464 123.411 104.139 126.508 114.071 128.959C121.906 130.849 130.01 131.828 138.158 131.868C143.461 131.942 148.751 131.409 153.884 130.282C157.893 129.393 161.705 127.959 165.17 126.036C168.079 124.43 170.487 122.256 172.19 119.696C173.758 117.337 174.587 114.679 174.599 111.974V62.6037" fill="#F1F2F2" fill-opacity="0.5"/>
<path d="M238.189 62.6035V242.605H231.256L213.672 220.618V62.6035" fill="#F1F2F2" fill-opacity="0.5"/>
</svg>
