<svg width="48" height="48" viewBox="0 0 48 48" fill="none" xmlns="http://www.w3.org/2000/svg">
<path d="M8.00012 20.0001L6.58612 21.4141L5.17212 20.0001L6.58612 18.5861L8.00012 20.0001ZM42.0001 36.0001C42.0001 36.5305 41.7894 37.0392 41.4143 37.4143C41.0393 37.7893 40.5306 38.0001 40.0001 38.0001C39.4697 38.0001 38.961 37.7893 38.5859 37.4143C38.2108 37.0392 38.0001 36.5305 38.0001 36.0001H42.0001ZM16.5861 31.4141L6.58612 21.4141L9.41412 18.5861L19.4141 28.5861L16.5861 31.4141ZM6.58612 18.5861L16.5861 8.58606L19.4141 11.4141L9.41412 21.4141L6.58612 18.5861ZM8.00012 18.0001H28.0001V22.0001H8.00012V18.0001ZM42.0001 32.0001V36.0001H38.0001V32.0001H42.0001ZM28.0001 18.0001C31.7132 18.0001 35.2741 19.4751 37.8996 22.1006C40.5251 24.7261 42.0001 28.287 42.0001 32.0001H38.0001C38.0001 29.3479 36.9466 26.8044 35.0712 24.929C33.1958 23.0536 30.6523 22.0001 28.0001 22.0001V18.0001Z" fill="#181026"/>
</svg>
