<svg width="184" height="68" viewBox="0 0 184 68" fill="none" xmlns="http://www.w3.org/2000/svg">
<path d="M83.5318 18.7857H64.5573V25.8845C66.2661 24.0097 67.8489 22.8045 69.3059 22.2688C70.1901 21.9604 71.1216 21.8095 72.0579 21.8229C75.8825 21.8229 78.743 23.6977 80.6392 27.4473C81.4335 28.9491 81.8603 30.6178 81.8846 32.3165C81.8846 35.2305 80.6861 37.8633 78.289 40.2148C77.7236 40.7835 77.1267 41.32 76.5012 41.8218L72.6445 39.5158C73.6167 38.498 74.7228 37.2446 75.9629 35.7555C77.3583 34.0815 78.0627 31.9656 78.0761 29.4079C78.1397 28.0615 77.7785 26.7292 77.0436 25.5993C76.6868 25.0324 76.1842 24.5718 75.5884 24.2658C74.9926 23.9597 74.3255 23.8195 73.6569 23.8597C72.3177 23.8919 70.8754 24.4008 69.33 25.3864C67.9945 26.2319 66.8272 27.3175 65.8871 28.5883C64.8988 29.906 64.4046 31.1769 64.4046 32.4009V41.7334L60.0216 39.3712V18.7857H35.1133V15.9734H60.0216C60.0216 11.3694 58.8163 7.44035 56.4059 4.1862C54.9756 2.22568 53.6485 0.846346 52.4245 0.0482096L57.1772 0C59.81 1.43825 61.9017 4.54509 63.4525 9.32052C64.1696 11.4632 64.5424 13.706 64.5573 15.9654H83.5318V18.7857Z" fill="white"/>
<path d="M112.451 15.9655L112.403 18.7777H109.992V23.3013C109.711 23.8638 109.052 25.0543 108.016 26.8729L99.6715 41.5447C98.2734 41.5447 96.4468 40.4399 94.1917 38.2303C91.7169 35.8198 90.4782 33.1415 90.4755 30.1953C90.4831 28.6705 90.9959 27.1913 91.9338 25.989C92.2734 25.6114 92.5015 25.1468 92.5927 24.6472C92.5927 24.1008 92.1307 23.8437 91.2067 23.8437C90.4549 23.8664 89.7387 24.1686 89.1979 24.6914C88.6609 25.2221 88.1513 25.7799 87.6713 26.3627L84.6381 23.6107C85.4991 22.8301 86.5419 22.2777 87.6713 22.0037C88.2904 21.8821 88.9207 21.8269 89.5515 21.839C93.7966 21.7908 95.9205 24.0553 95.9232 28.6325C95.9232 29.2485 95.8562 30.1659 95.7223 31.3845C95.5897 32.5897 95.5254 33.5258 95.5254 34.1365C95.5254 36.6112 95.9674 37.9584 96.8512 38.178C97.336 38.178 97.9105 37.5861 98.5747 36.4023L105.73 23.462V18.7857H82.8945V15.9735L112.451 15.9655Z" fill="white"/>
<path d="M136.191 18.7856H120.523V22.57C120.596 22.5759 120.664 22.6105 120.712 22.6664C120.753 22.717 120.812 22.75 120.877 22.7588C120.805 22.7676 120.732 22.7593 120.664 22.7347C120.664 22.6584 121.829 22.4053 124.167 21.9835C125.013 21.8275 125.87 21.7481 126.73 21.7464C130.258 21.7464 132.522 22.7347 133.524 24.7113C134.199 26.029 134.536 28.6859 134.536 32.682V41.7333C134.207 41.6074 132.96 41.0972 130.796 40.2027C130.796 39.7045 130.695 39.3992 130.491 39.2425C129.659 39.7286 128.98 40.0942 128.446 40.3473C126.593 41.1832 124.576 41.5949 122.544 41.5525C119.453 41.5525 117.071 40.5803 115.397 38.6359C114.618 37.772 114.188 36.6493 114.192 35.4862C114.192 34.1845 114.833 32.8922 116.116 31.6093C118.612 29.1158 121.708 27.869 125.404 27.869C127.646 27.869 129.449 28.386 130.812 29.4198V27.2504C130.289 26.5139 129.601 25.9099 128.803 25.4867C127.955 25.1578 127.044 25.0206 126.136 25.0849C123.756 25.1029 121.401 25.5747 119.197 26.475C118.257 26.8633 117.34 27.2155 116.446 27.5316V25.788C116.65 25.6152 116.948 25.3541 117.341 25.0086L117.458 24.868V18.7856H111.5V15.9733H136.191V18.7856ZM130.808 33.6904C130.808 33.0047 129.986 32.386 128.341 31.8343C127.246 31.4315 126.096 31.2011 124.93 31.1513C121.623 31.1513 118.974 32.3432 116.984 34.7269C116.18 35.683 115.779 36.4664 115.779 37.0771C116.103 38.2207 117.395 38.7925 119.655 38.7925C122.472 38.8205 125.24 38.0637 127.65 36.607C129.761 35.3375 130.815 34.3653 130.812 33.6904H130.808Z" fill="white"/>
<path d="M159.093 18.7856H143.425V22.57C143.462 22.5725 143.497 22.5823 143.53 22.5988C143.562 22.6154 143.591 22.6384 143.614 22.6664C143.655 22.717 143.714 22.75 143.779 22.7588C143.707 22.7672 143.634 22.7589 143.566 22.7347C143.566 22.6584 144.735 22.4053 147.069 21.9835C147.915 21.8277 148.773 21.7483 149.632 21.7464C153.16 21.7464 155.424 22.7347 156.426 24.7113C157.101 26.029 157.438 28.6859 157.438 32.682V41.7333C157.109 41.6074 155.862 41.0972 153.698 40.2027C153.698 39.7045 153.598 39.3992 153.393 39.2425C152.565 39.7286 151.882 40.0942 151.348 40.3473C149.495 41.1832 147.479 41.5949 145.446 41.5525C142.361 41.5525 139.978 40.5803 138.299 38.6359C137.52 37.772 137.091 36.6493 137.094 35.4862C137.094 34.1845 137.737 32.8922 139.022 31.6093C141.513 29.1158 144.608 27.869 148.307 27.869C150.548 27.869 152.351 28.386 153.714 29.4198V27.2504C153.192 26.513 152.504 25.9088 151.705 25.4867C150.857 25.1574 149.946 25.0202 149.038 25.0849C146.658 25.1034 144.303 25.5752 142.1 26.475C141.16 26.8633 140.244 27.2155 139.352 27.5316V25.788C139.553 25.6152 139.854 25.3541 140.244 25.0086L140.36 24.868V18.7856H135.539V15.9733H159.093V18.7856ZM153.706 33.6904C153.706 33.0034 152.903 32.3847 151.239 31.8343C150.145 31.4308 148.994 31.2004 147.828 31.1513C144.521 31.1513 141.872 32.3432 139.882 34.7269C139.078 35.683 138.677 36.4664 138.677 37.0771C139.006 38.2207 140.298 38.7925 142.554 38.7925C145.37 38.8205 148.138 38.0637 150.548 36.607C152.645 35.3375 153.693 34.3653 153.69 33.6904H153.706Z" fill="white"/>
<path d="M184.001 18.7856H158.723V15.9733H184.001V18.7856ZM178.943 29.1305C178.943 25.3809 177.163 23.4994 173.603 23.486C170.971 23.486 168.769 24.8653 166.999 27.624C165.471 29.9412 164.654 32.6545 164.648 35.4299V42.2596L160.792 40.2509V22.574H164.837V25.3863L166.926 23.8114C168.588 22.4714 170.65 21.7261 172.784 21.6942C174.11 21.6709 175.424 21.9508 176.626 22.5127C177.828 23.0745 178.885 23.9035 179.718 24.9363C181.443 26.9767 182.363 29.5769 182.305 32.2481C182.305 35.8076 180.8 39.2251 177.79 42.5007L173.254 39.6563C174.663 38.2636 175.861 36.978 176.849 35.7995C178.245 34.147 178.943 31.924 178.943 29.1305Z" fill="white"/>
<path d="M46.4901 17.2952V67.0234H44.6582L40.7693 61.0655V41.3799C39.7281 41.7411 38.662 42.0258 37.5794 42.2316C36.5565 42.4214 35.5183 42.5169 34.4779 42.5169C33.879 42.5159 33.2807 42.4797 32.6861 42.4084C32.0239 42.3263 31.3677 42.2015 30.7216 42.0348C30.7778 42.4727 30.83 42.9628 30.8742 43.5011C30.9184 44.0395 30.9385 44.5577 30.9385 45.0519C30.9619 46.7527 30.6648 48.4427 30.0627 50.0336C29.5196 51.4611 28.6692 52.7517 27.5719 53.814C26.462 54.8657 25.1441 55.6731 23.7031 56.1843C22.0911 56.7551 20.3911 57.0366 18.6812 57.0159C16.3371 57.06 14.018 56.5275 11.9279 55.4652C9.93346 54.4177 8.16117 52.9933 6.70917 51.2709C5.13139 49.3907 3.82008 47.302 2.81223 45.0639C1.68654 42.5929 0.746531 40.0415 0 37.4308L2.09712 36.8201C2.80019 38.8542 3.70036 40.8146 4.7848 42.6736C5.73044 44.3077 6.89114 45.8076 8.23581 47.1329C9.43457 48.3062 10.8244 49.2667 12.3457 49.9733C13.82 50.6442 15.4224 50.9869 17.0421 50.9777C18.1916 50.9851 19.3349 50.8088 20.4288 50.4554C21.4553 50.1294 22.4099 49.6098 23.241 48.9247C24.0489 48.2433 24.6975 47.3931 25.1413 46.4339C25.6244 45.3629 25.8631 44.1978 25.8403 43.0231C25.8763 41.4823 25.425 39.9695 24.5507 38.7003C23.6803 37.4816 22.3264 36.5 20.4891 35.7555C19.7643 35.4433 19.0108 35.2025 18.2393 35.0363C17.5867 34.8863 16.9202 34.8055 16.2507 34.7953C15.614 34.8093 14.9791 34.867 14.3504 34.9681C13.5469 35.0859 12.6363 35.2613 11.6185 35.4943L6.99039 30.0547L7.03458 29.7052C9.42957 29.537 11.8058 29.1647 14.1375 28.5923C16.0132 28.1407 17.8255 27.4579 19.5329 26.5595C20.8523 25.8769 22.0248 24.9419 22.9839 23.8075C23.7547 22.8882 24.1809 21.7289 24.1892 20.5293C24.1905 19.7527 24.003 18.9875 23.6428 18.2996C23.2783 17.6002 22.7801 16.9791 22.1764 16.4716C21.5074 15.9248 20.7453 15.5029 19.9266 15.2262C19.0125 14.9144 18.0521 14.7596 17.0863 14.7682C15.2254 14.8302 13.3881 15.2036 11.6507 15.873C9.27646 16.7577 7.01718 17.9244 4.9214 19.3481L1.09275 13.4947C3.08081 12.5389 5.16037 11.7865 7.29974 11.2489C9.15865 10.7995 11.064 10.5703 12.9764 10.566C15.0507 10.5417 17.1136 10.8747 19.0749 11.5502C20.8194 12.1473 22.4407 13.0567 23.8597 14.2339C25.1732 15.3378 26.2383 16.7069 26.9853 18.2514C27.728 19.8065 28.1085 21.5097 28.0982 23.233C28.1535 25.3397 27.449 27.396 26.1135 29.0262C24.8038 30.6171 22.7215 31.9643 19.8664 33.0678C22.0535 34.0942 24.3167 34.9497 26.6358 35.6269C28.4654 36.1491 30.3576 36.4195 32.2603 36.4304C33.4984 36.4509 34.7336 36.3036 35.9322 35.9925C36.8684 35.7467 37.7585 35.3505 38.5677 34.8194C39.2469 34.3758 39.8092 33.7749 40.2068 33.0678C40.5729 32.4162 40.7665 31.6819 40.7693 30.9345V17.2952" fill="white"/>
<path d="M55.6194 17.2951V67.0233H54.0004L49.8945 60.9489V17.2951" fill="white"/>
</svg>
